<?xml version="1.0" standalone="no"?>
<!DOCTYPE svg PUBLIC "-//W3C//DTD SVG 20010904//EN"
 "http://www.w3.org/TR/2001/REC-SVG-20010904/DTD/svg10.dtd">
<svg version="1.0" xmlns="http://www.w3.org/2000/svg"
 width="370.000000pt" height="370.000000pt" viewBox="0 0 370.000000 370.000000"
 preserveAspectRatio="xMidYMid meet">
<metadata>
Created by potrace 1.11, written by Peter Selinger 2001-2013
</metadata>
<g transform="translate(0.000000,370.000000) scale(0.100000,-0.100000)"
fill="#000000" stroke="none">
<path d="M252 3332 c-16 -34 -52 -184 -52 -217 0 -34 28 -32 36 3 20 87 22 80
23 -60 1 -138 0 -147 -19 -153 -11 -3 -20 -11 -20 -16 0 -5 9 -9 20 -9 19 0
20 -7 20 -194 0 -186 -1 -195 -20 -201 -26 -8 -26 -25 0 -32 19 -5 20 -14 20
-173 0 -140 -2 -169 -15 -174 -19 -7 -20 -36 -2 -36 11 0 15 -43 21 -202 6
-177 5 -204 -8 -214 -20 -14 -21 -34 -2 -34 17 0 26 -71 26 -222 0 -72 -4
-118 -10 -118 -5 0 -10 -4 -10 -10 0 -5 6 -10 13 -10 16 0 27 -125 27 -314 0
-99 -3 -123 -17 -139 -16 -17 -16 -20 -1 -31 12 -9 18 -37 23 -111 4 -55 11
-110 16 -122 l9 -23 1577 0 c1491 -1 1576 -1 1551 -18 -30 -18 -37 -49 -13
-58 8 -3 27 3 42 13 27 19 102 55 150 74 38 14 16 38 -75 80 -47 21 -89 39
-93 39 -14 0 -11 -22 5 -39 13 -15 3 -16 -105 -16 l-119 0 0 45 c-1 239 -32
676 -50 710 -11 20 -104 66 -161 79 -24 6 -85 11 -136 11 -147 0 -256 -53
-284 -138 -13 -40 -7 -378 11 -596 6 -66 9 -120 8 -122 -2 -1 -62 -4 -135 -6
l-132 -4 -6 36 c-14 86 -23 634 -14 812 11 213 6 252 -41 292 -41 34 -84 45
-220 57 -169 15 -290 -8 -358 -67 l-37 -32 -1 -213 c0 -118 3 -284 7 -369 4
-85 10 -239 14 -342 l8 -188 -184 0 -184 0 -2 163 c-3 239 -31 1028 -49 1366
-6 123 -6 124 -40 161 -47 52 -114 78 -251 96 -129 17 -170 15 -274 -17 -77
-23 -122 -50 -153 -92 -20 -28 -21 -41 -24 -415 -2 -237 3 -532 13 -762 8
-206 15 -403 15 -437 l0 -63 -114 0 -114 0 -6 31 c-3 17 -6 67 -6 110 0 61 3
79 14 79 8 0 16 6 19 14 6 15 -11 36 -29 36 -16 0 -31 413 -15 418 15 5 14 29
-1 34 -10 4 -13 51 -13 191 0 103 -3 187 -7 187 -5 0 -8 88 -8 196 0 175 2
198 17 209 17 12 17 14 1 32 -25 27 -31 341 -8 361 13 11 13 14 -2 26 -16 12
-18 34 -18 193 0 150 3 183 15 193 14 12 14 15 0 30 -12 13 -15 43 -14 146 0
126 1 128 16 97 10 -20 24 -33 36 -33 23 0 22 1 -27 120 -20 47 -36 95 -36
108 0 31 -22 28 -38 -6z m833 -1037 c70 -15 149 -56 169 -87 29 -48 -110 -83
-329 -83 -207 0 -315 25 -315 73 0 29 54 73 112 92 68 24 263 26 363 5z m-369
-199 c118 -30 377 -16 502 27 31 11 42 11 42 3 0 -18 -22 -36 -44 -36 -12 0
-28 -5 -36 -11 -11 -8 -2 -9 33 -5 42 5 48 4 45 -12 -2 -9 -22 -26 -45 -37
-24 -11 -43 -23 -43 -27 0 -9 58 8 77 23 12 11 14 6 11 -36 -3 -47 -5 -50 -36
-56 -50 -10 -53 -23 -4 -15 41 6 43 5 40 -16 -2 -16 -13 -26 -35 -33 -44 -13
-42 -25 3 -15 32 8 35 6 32 -13 -2 -13 -17 -29 -38 -40 l-35 -18 40 3 c35 3
40 0 43 -19 2 -13 2 -23 0 -23 -2 0 -21 -7 -43 -15 l-40 -14 43 -1 c34 0 42
-3 42 -18 0 -18 -37 -42 -65 -42 -8 0 -15 -5 -15 -11 0 -8 14 -10 41 -6 39 5
40 4 37 -21 -2 -20 -11 -29 -33 -36 -66 -19 -71 -26 -18 -23 48 2 53 0 58 -22
7 -27 -7 -41 -42 -41 -12 0 -25 -4 -28 -10 -4 -6 10 -10 34 -10 36 0 41 -3 41
-24 0 -29 -17 -44 -59 -52 -17 -4 -34 -11 -37 -15 -7 -12 53 -11 77 1 17 10
19 7 19 -20 0 -20 -6 -32 -17 -36 -52 -16 -57 -24 -15 -21 34 2 42 -1 42 -15
0 -26 -40 -48 -87 -48 -26 0 -43 -5 -43 -11 0 -8 20 -10 65 -7 63 6 65 5 65
-18 0 -17 -6 -24 -19 -24 -27 0 -51 -10 -51 -22 0 -7 14 -8 36 -5 32 5 35 4
32 -16 -2 -15 -16 -26 -45 -37 -63 -23 -65 -34 -5 -27 46 5 52 4 52 -12 0 -18
-37 -41 -65 -41 -8 0 -15 -4 -15 -10 0 -13 31 -13 64 0 25 9 26 8 26 -25 0
-37 -21 -57 -73 -69 -16 -4 -25 -11 -21 -17 6 -10 27 -8 77 7 35 11 16 -18
-23 -33 -47 -19 -36 -34 17 -26 29 5 33 3 33 -16 0 -20 -14 -30 -85 -57 -17
-7 -15 -9 12 -12 18 -2 42 2 53 8 19 10 21 9 18 -12 -2 -15 -11 -24 -25 -26
-31 -5 -29 -22 2 -22 14 0 25 -4 25 -8 0 -11 -46 -32 -70 -32 -19 0 -36 -17
-27 -27 3 -3 26 0 52 5 45 10 46 9 29 -9 -9 -10 -21 -19 -25 -19 -4 0 -20 -5
-36 -11 l-28 -12 25 -7 c14 -5 -65 -8 -175 -9 -214 -1 -367 15 -410 43 -42 28
-31 42 32 41 36 0 58 4 60 13 3 8 -9 12 -44 12 -52 0 -73 12 -73 42 0 14 6 16
29 12 16 -4 32 -1 35 5 4 7 -1 11 -13 11 -26 0 -61 34 -61 59 0 18 2 19 28 5
31 -16 61 -18 82 -4 8 5 13 10 10 11 -3 0 -17 2 -32 4 -49 6 -83 29 -86 55 -3
24 -1 25 39 22 50 -5 46 11 -6 28 -29 9 -35 17 -35 39 l0 27 65 -4 c77 -5 91
13 18 23 -27 3 -55 7 -63 8 -8 1 -16 15 -18 30 -3 26 -2 28 18 17 11 -6 31
-10 43 -8 19 3 16 7 -20 26 -28 15 -43 29 -43 42 0 16 5 19 30 14 39 -8 38 -1
-5 25 -21 12 -35 28 -35 40 0 17 5 19 37 14 43 -7 39 8 -7 27 -21 9 -30 19
-30 36 0 23 3 24 40 18 51 -8 51 6 0 28 -34 14 -40 21 -40 47 0 29 2 30 26 21
55 -21 62 -2 9 23 -29 14 -35 22 -35 48 0 26 3 30 18 24 36 -15 52 -17 52 -6
0 6 -16 17 -35 25 -19 8 -35 19 -35 25 0 5 -3 17 -6 25 -5 14 -2 15 21 6 56
-21 65 1 10 24 -19 8 -35 22 -35 31 0 13 4 14 21 4 14 -7 24 -8 31 -1 7 7 0
16 -21 26 -22 12 -31 24 -31 41 0 22 3 24 30 19 17 -4 30 -2 30 4 0 5 -13 15
-30 22 -21 9 -30 19 -30 36 0 21 3 23 30 18 38 -8 38 6 0 28 -21 12 -30 25
-30 43 0 22 3 24 19 15 24 -12 41 -13 41 -1 0 5 -13 15 -30 23 -39 17 -43 52
-4 38 26 -10 44 -6 44 10 0 5 -15 10 -32 12 -25 2 -34 8 -36 24 -3 18 1 20 30
17 31 -4 32 -3 14 11 -11 9 -26 16 -33 16 -7 0 -13 9 -13 20 0 17 3 19 19 10
11 -5 31 -14 45 -20 41 -15 31 7 -13 29 -35 18 -51 37 -51 61 0 5 15 1 33 -10
17 -10 60 -26 93 -34z m1439 -367 c128 -18 185 -71 136 -123 -45 -47 -107 -68
-221 -74 -146 -7 -247 18 -308 74 -32 29 -25 54 24 81 89 49 219 64 369 42z
m-405 -200 c0 -5 -4 -9 -10 -9 -5 0 -10 7 -10 16 0 8 5 12 10 9 6 -3 10 -10
10 -16z m553 -5 c-10 -15 -19 -22 -21 -15 -2 7 4 19 14 26 26 20 27 19 7 -11z
m-258 -28 c84 0 133 5 163 16 43 16 54 11 27 -12 -8 -7 -15 -19 -15 -27 0 -13
3 -13 15 -3 27 23 28 3 1 -36 -16 -25 -22 -40 -15 -45 7 -4 9 -29 5 -68 -4
-52 -3 -61 9 -51 20 16 31 -7 13 -28 -28 -32 -33 -46 -15 -39 14 5 17 1 16
-21 -1 -15 2 -35 6 -44 5 -12 2 -20 -9 -24 -20 -8 -21 -24 -2 -24 27 0 28 -21
2 -54 -25 -33 -25 -56 1 -35 9 9 13 8 13 0 0 -6 0 -13 0 -16 0 -3 -3 -5 -6 -4
-10 1 -38 -61 -30 -68 3 -4 13 2 20 13 12 16 17 17 28 6 11 -11 10 -16 -4 -26
-10 -7 -15 -15 -13 -18 3 -3 -1 -11 -10 -18 -19 -16 -19 -36 0 -44 18 -7 20
-27 3 -24 -7 2 -12 -3 -10 -11 1 -7 -3 -19 -9 -27 -7 -8 -9 -18 -5 -21 4 -4
11 -1 16 7 5 8 12 12 15 9 9 -10 -6 -39 -20 -39 -8 0 -13 -9 -12 -20 1 -11 7
-20 13 -20 15 0 26 -28 14 -35 -6 -4 -14 -3 -20 0 -16 10 -12 -7 7 -27 13 -14
13 -18 2 -19 -8 0 -23 -2 -34 -4 -54 -11 -210 -17 -277 -11 -68 7 -75 9 -71
27 6 21 -7 25 -25 7 -17 -17 -14 3 3 26 19 25 19 40 0 32 -20 -7 -19 3 5 41
11 19 15 35 10 38 -6 4 -10 17 -10 30 0 12 -7 25 -15 29 -8 3 -15 10 -15 17 0
6 7 8 16 5 12 -4 15 -2 10 9 -3 9 0 15 9 15 23 0 18 29 -7 50 l-23 18 23 24
c26 28 28 38 7 38 -9 0 -15 10 -15 26 0 14 -4 23 -9 19 -5 -3 -12 -1 -16 5 -3
5 1 10 9 10 21 0 20 12 -5 44 -11 14 -16 26 -11 26 6 0 13 -6 15 -12 3 -7 6
-2 6 11 1 14 8 33 18 43 19 22 10 36 -12 18 -12 -10 -15 -10 -15 3 0 8 4 17 9
19 4 2 12 14 16 27 5 15 4 21 -3 17 -18 -11 -26 35 -8 52 14 14 14 17 -2 28
-16 11 -15 14 2 33 11 12 14 21 8 21 -7 0 -12 11 -12 24 0 13 -7 27 -16 30
-14 5 -12 10 10 33 18 18 23 30 16 37 -20 20 -9 23 43 8 34 -10 94 -16 172
-16z m-308 -38 c-3 -8 -6 -5 -6 6 -1 11 2 17 5 13 3 -3 4 -12 1 -19z m38 -48
c-3 -5 -11 -10 -16 -10 -6 0 -7 5 -4 10 3 6 11 10 16 10 6 0 7 -4 4 -10z m480
-10 c-3 -5 -11 -10 -16 -10 -6 0 -7 5 -4 10 3 6 11 10 16 10 6 0 7 -4 4 -10z
m839 -31 c91 -44 86 -69 -23 -121 -63 -30 -72 -32 -186 -32 -223 0 -306 55
-198 132 59 42 111 52 238 49 103 -3 127 -7 169 -28z m-1284 13 c0 -13 -12
-22 -22 -16 -10 6 -1 24 13 24 5 0 9 -4 9 -8z m-45 -42 c3 -5 1 -10 -4 -10 -6
0 -11 5 -11 10 0 6 2 10 4 10 3 0 8 -4 11 -10z m30 -30 c3 -5 1 -10 -4 -10 -6
0 -11 5 -11 10 0 6 2 10 4 10 3 0 8 -4 11 -10z m486 -13 c-1 -12 -15 -9 -19 4
-3 6 1 10 8 8 6 -3 11 -8 11 -12z m-511 -32 c0 -8 -4 -15 -10 -15 -5 0 -10 7
-10 15 0 8 5 15 10 15 6 0 10 -7 10 -15z m27 -51 c-9 -9 -28 6 -21 18 4 6 10
6 17 -1 6 -6 8 -13 4 -17z m483 17 c0 -6 -4 -13 -10 -16 -5 -3 -10 1 -10 9 0
9 5 16 10 16 6 0 10 -4 10 -9z m879 -184 c8 -152 5 -210 -10 -185 -6 8 -9 0
-9 -24 0 -20 5 -40 10 -43 6 -3 9 -27 8 -53 l-1 -47 -8 50 c-7 49 -7 49 -3
-10 2 -33 6 -77 10 -97 l6 -38 -226 0 -226 0 0 63 c0 42 3 57 10 47 11 -18 16
-13 25 23 6 22 4 26 -8 22 -11 -5 -17 4 -23 32 l-8 38 -6 -55 -7 -55 -1 60
c-1 34 2 65 7 70 9 10 -10 209 -25 269 -4 16 -2 26 5 26 6 0 11 -5 11 -11 0
-5 5 -7 10 -4 7 4 9 -17 6 -62 -2 -37 -2 -56 1 -40 2 15 9 27 15 27 10 0 8 20
-7 96 l-7 31 59 -9 c107 -18 295 4 361 41 21 12 20 20 31 -162z m8 151 c-3 -8
-6 -5 -6 6 -1 11 2 17 5 13 3 -3 4 -12 1 -19z m-867 -10 c0 -18 -2 -20 -9 -8
-6 8 -7 18 -5 22 9 14 14 9 14 -14z m-540 -19 c0 -6 -4 -7 -10 -4 -5 3 -10 11
-10 16 0 6 5 7 10 4 6 -3 10 -11 10 -16z m1417 -11 c-3 -8 -6 -5 -6 6 -1 11 2
17 5 13 3 -3 4 -12 1 -19z m-892 2 c3 -5 2 -10 -4 -10 -5 0 -13 5 -16 10 -3 6
-2 10 4 10 5 0 13 -4 16 -10z m892 -92 c-2 -13 -4 -3 -4 22 0 25 2 35 4 23 2
-13 2 -33 0 -45z m-887 22 c0 -5 -2 -10 -4 -10 -3 0 -8 5 -11 10 -3 6 -1 10 4
10 6 0 11 -4 11 -10z m-520 -37 c0 -5 -5 -15 -10 -23 -8 -12 -10 -11 -10 8 0
12 5 22 10 22 6 0 10 -3 10 -7z m523 -46 c-9 -16 -26 12 -18 30 7 17 8 17 15
-2 4 -11 5 -24 3 -28z m-503 -8 c-6 -11 -15 -17 -20 -14 -6 4 -5 14 2 25 16
24 31 15 18 -11z m16 -37 c-18 -16 -18 -16 -6 6 6 13 14 21 18 18 3 -4 -2 -14
-12 -24z m489 -12 c3 -5 1 -10 -4 -10 -6 0 -11 5 -11 10 0 6 2 10 4 10 3 0 8
-4 11 -10z m-525 -44 c0 -3 -4 -8 -10 -11 -5 -3 -10 -1 -10 4 0 6 5 11 10 11
6 0 10 -2 10 -4z m527 -38 c-3 -8 -6 -5 -6 6 -1 11 2 17 5 13 3 -3 4 -12 1
-19z m-502 2 c3 -5 1 -10 -4 -10 -6 0 -11 5 -11 10 0 6 2 10 4 10 3 0 8 -4 11
-10z m1382 -162 c-2 -35 -3 -9 -3 57 0 66 1 94 3 63 2 -32 2 -86 0 -120z
m-890 126 c-9 -9 -28 6 -21 18 4 6 10 6 17 -1 6 -6 8 -13 4 -17z m-517 1 c0
-8 -4 -15 -10 -15 -5 0 -10 7 -10 15 0 8 5 15 10 15 6 0 10 -7 10 -15z m535
-25 c3 -5 1 -10 -4 -10 -6 0 -11 5 -11 10 0 6 2 10 4 10 3 0 8 -4 11 -10z
m-505 -9 c0 -6 -4 -13 -10 -16 -5 -3 -10 1 -10 9 0 9 5 16 10 16 6 0 10 -4 10
-9z m485 -20 c3 -5 1 -12 -5 -16 -5 -3 -10 1 -10 9 0 18 6 21 15 7z m-511 -17
c3 -8 2 -12 -4 -9 -6 3 -10 10 -10 16 0 14 7 11 14 -7z m59 0 c3 -4 -1 -17
-10 -31 -20 -30 -41 -16 -24 16 12 21 23 26 34 15z m477 -39 c0 -5 -5 -3 -10
5 -5 8 -10 20 -10 25 0 6 5 3 10 -5 5 -8 10 -19 10 -25z m-20 -26 c0 -22 -13
-25 -29 -6 -8 10 -7 17 1 25 15 15 28 6 28 -19z m-504 -26 c-6 -14 -9 -15 -16
-4 -11 19 -1 46 13 32 5 -5 7 -18 3 -28z m20 -29 c-4 -9 -9 -15 -11 -12 -3 3
-3 13 1 22 4 9 9 15 11 12 3 -3 3 -13 -1 -22z m-35 -57 c-8 -8 -11 -7 -11 4 0
20 13 34 18 19 3 -7 -1 -17 -7 -23z m-1111 -3 c0 -2 -7 -4 -15 -4 -8 0 -15 4
-15 10 0 5 7 7 15 4 8 -4 15 -8 15 -10z"/>
<path d="M3111 1134 c0 -11 3 -14 6 -6 3 7 2 16 -1 19 -3 4 -6 -2 -5 -13z"/>
<path d="M2723 930 c0 -25 2 -35 4 -22 2 12 2 32 0 45 -2 12 -4 2 -4 -23z"/>
<path d="M3137 918 c8 -46 13 -48 13 -5 0 21 -4 37 -10 37 -5 0 -7 -14 -3 -32z"/>
</g>
</svg>
